<svg width="127" height="40" viewBox="0 0 127 40" fill="none" xmlns="http://www.w3.org/2000/svg">
<g clip-path="url(#clip0_4_16)">
<path fill-rule="evenodd" clip-rule="evenodd" d="M29.6949 8.98596H23.1556L19.5998 5.52057H12.0061L8.45035 8.98596H1.91115L8.87215 2.20578H22.7338L29.6949 8.98596ZM2.60414 22.4259H13.5731V19.3523H4.11084V16.0375H13.5731V13.2348H3.44804V9.92029H28.3087V13.2348H18.2137V16.0375H27.7361V19.3523H18.2137V22.4259H29.0318V25.7407H2.60414V22.4259ZM39.157 2.41669H47.3232V5.46027H43.8279V7.02728H47.5645V10.1009H41.8087L39.187 13.687H34.2751L36.9572 10.1009H33.9738V7.02728H39.187V5.46027H38.2831L38.0721 6.21368H34.0642L35.36 1.63318H39.3678L39.157 2.41669ZM36.3546 14.5609H59.4674V25.7407H36.3546V14.5609ZM54.8268 22.4863V21.2807H40.9952V22.4863H54.8268ZM54.8268 18.9605V17.7853H40.9952V18.9605H54.8268ZM46.3589 10.7038L47.9862 13.687H43.2853L41.6582 10.7038H46.3589ZM48.1971 2.20578L60.944 2.26617V13.687H48.1971V2.20578ZM56.3034 10.3721V5.55066H52.8377V10.3721H56.3034ZM87.01 6.39456H80.1093V22.3355H93.0971V25.6503H66.4886V22.3355H75.4688V6.39456H67.2117V3.07968H91.6506V18.1167H83.3938V14.8018H87.01V6.39456ZM125.461 14.8322H121.454V19.051L116.963 21.3411L125.461 25.7407H115.939L111.931 23.7216L108.255 25.5298L104.126 25.7407H98.1295L106.477 21.4012L101.987 18.9906V14.8322H97.9486V11.5173H101.987V10.0708H106.627V11.5173H116.813V10.0708H121.454V11.5173H125.461V14.8322ZM99.1539 3.07968H108.827L108.435 1.63318H114.221L114.613 3.07968H124.286V9.55856H119.645V6.39456H103.795V9.55856H99.1539V3.07968ZM111.569 19.081L116.813 16.4292V14.8322H106.627V16.4593L111.569 19.081Z" fill="#1B1918"/>
<path fill-rule="evenodd" clip-rule="evenodd" d="M8.83844 29.4796L8.96004 38.0065H2.15094L2.45534 29.4796H8.83844ZM7.21814 36.5569L7.14505 30.9293H4.18504L3.97815 36.5569H7.21814ZM16.6875 31.7941V31.9404H23.6792V38.0065H21.901V33.341H20.1348V38.0065H18.3563V33.341H16.6509L16.5291 38.0065H14.7506L14.9091 31.7941H16.6875ZM31.346 31.7941V31.9282H35.329V38.0065H33.5508V33.3166H31.3095L31.1877 38.0065H29.4091L29.5677 31.7941H31.346ZM42.9713 28.9924V30.8561H41.1805V28.9924H42.9713ZM41.1805 31.9282H42.9713L42.8493 38.0065H41.0587L41.1805 31.9282ZM55.1202 29.4796V30.9293H50.7473L50.5768 36.5569H53.829L53.7803 34.2302H51.7339V32.7809H55.4734L55.5953 38.0065H48.7618L49.0053 29.4796H55.1202ZM67.1476 31.916L67.2574 38.0065H61.386L61.4713 31.916H63.2498L63.1888 36.6178H65.4424L65.3571 31.916H67.1476ZM78.6755 38.0065H72.987L73.0602 34.072H76.8727L76.8484 33.2559H73.0602V31.916H78.5536L78.6755 38.0065ZM76.9215 36.6666L76.8972 35.4242H74.7654L74.7411 36.6666H76.9215ZM86.3421 31.7697L86.33 32.0254L88.9245 32.0132V33.4019L86.3056 33.4141L86.1837 38.0065H84.4052L84.5638 31.7697H86.3421ZM100.526 28.2616V38.0065H94.6542L94.776 31.9282H98.7471V28.2616H100.526ZM98.7471 36.5569V33.3776H96.4814L96.4082 36.5569H98.7471Z" fill="#1B1918"/>
<path fill-rule="evenodd" clip-rule="evenodd" d="M116.695 38.0065H114.904L114.539 35.558H111.396L111.031 38.0065H109.24L110.507 29.4796H115.428L116.695 38.0065ZM114.307 34.0111L113.856 30.9293H112.066L111.615 34.0111H114.307ZM124.58 29.4796L124.337 38.0065H122.546L122.79 29.4796H124.58Z" fill="#0166FF"/>
</g>
<defs>
<clipPath id="clip0_4_16">
<rect width="127" height="40" fill="white"/>
</clipPath>
</defs>
</svg>
