<svg width="40" height="38" viewBox="0 0 40 38" fill="none" xmlns="http://www.w3.org/2000/svg">
<path fill-rule="evenodd" clip-rule="evenodd" d="M16.0941 22.2647V27.66C16.0941 27.66 35.3462 26.6609 38.919 20.7326C41.5151 16.6251 32.566 16.3277 32.566 16.3277C32.566 16.3277 34.755 16.7803 33.2642 18.4013C31.4906 20.5993 16.0941 22.2647 16.0941 22.2647ZM0 26.2084C1.21623 28.2443 2.76644 30.2705 4.57922 32.1396L18.4437 8.14107L19.6796 12.7232C19.6796 12.7232 24.717 12.2867 26.7475 10.9988L23.1302 0H15.5597L0 26.2084ZM25.3594 37.5546C28.0338 36.1911 30.5513 34.4005 32.7782 32.376L31.4135 26.1058C31.4135 26.1058 27.9692 27.5046 23.6964 28.0264L25.3594 37.5546ZM17.0532 19.8854C17.0532 19.8854 40.9996 16.928 39.9706 9.69795C39.1328 6.06409 31.4795 6.84295 31.4795 6.84295C29.012 5.82148 28.7663 4.34662 28.7663 4.34662C28.7663 4.34662 28.6261 5.82148 26.1586 6.84295C28.6261 7.86431 28.819 9.33922 28.819 9.33922C28.819 9.33922 29.012 7.86431 31.4795 6.84295C31.4795 6.84295 34.3629 7.58941 34.2153 8.65407C33.8553 12.0955 17.0532 14.2356 17.0532 14.2356V19.8854Z" fill="#0166FF"/>
</svg>
